<svg width="36" height="36" viewBox="0 0 36 36" fill="none" xmlns="http://www.w3.org/2000/svg">
<path opacity="0.1" fill-rule="evenodd" clip-rule="evenodd" d="M2.03927 19.1204C1.42053 10.3055 8.06481 2.65808 16.8797 2.03934C25.6945 1.42061 33.342 8.06488 33.9607 16.8797C34.5795 25.6946 27.9352 33.3421 19.1203 33.9608C10.3055 34.5795 2.65801 27.9353 2.03927 19.1204Z" fill="white"/>
<path fill-rule="evenodd" clip-rule="evenodd" d="M17.3706 9.02207C15.0588 9.18434 14.7693 9.21481 13.8642 9.31987C12.9609 9.42498 12.3524 9.61187 11.826 9.86037C11.2813 10.1171 10.8268 10.4413 10.3869 10.9478C9.94661 11.4542 9.6891 11.9495 9.51025 12.5245C9.33722 13.0808 9.237 13.7096 9.2598 14.6184C9.28292 15.5292 9.29266 15.8203 9.45493 18.1321C9.61721 20.444 9.6478 20.7325 9.75268 21.6376C9.85796 22.5409 10.0449 23.1494 10.2932 23.6759C10.5501 24.2205 10.8743 24.675 11.3808 25.1149C11.887 25.5552 12.3824 25.8134 12.9572 25.9916C13.5136 26.1641 14.1424 26.2641 15.0513 26.242C15.9622 26.2196 16.2529 26.2094 18.5646 26.0471C20.8766 25.8848 21.1651 25.8544 22.0702 25.7493C22.9735 25.6442 23.5828 25.4573 24.1096 25.2088C24.654 24.9521 25.1078 24.6272 25.5475 24.1205C25.9878 23.6141 26.2453 23.1188 26.4242 22.5438C26.5954 21.9877 26.6956 21.3588 26.6746 20.45C26.6517 19.5391 26.642 19.2489 26.4797 16.9371C26.3174 14.6252 26.2864 14.3359 26.1819 13.4307C26.0757 12.5275 25.8887 11.919 25.6414 11.3924C25.384 10.8479 25.0598 10.3934 24.5531 9.95345C24.0463 9.51318 23.5524 9.25557 22.9768 9.07766C22.4193 8.90525 21.7903 8.80522 20.8812 8.82733C19.9703 8.84975 19.6805 8.85993 17.3679 9.02225L17.3706 9.02207ZM16.7146 10.6097C16.9412 10.5934 17.1941 10.576 17.4782 10.5561C19.7511 10.3965 20.021 10.3858 20.9214 10.3636C21.7541 10.3433 22.2142 10.4503 22.5225 10.5458C22.9306 10.6722 23.2267 10.8367 23.5454 11.1138C23.8643 11.3908 24.0686 11.6616 24.2511 12.048C24.3887 12.3395 24.5592 12.7802 24.6552 13.6075C24.759 14.502 24.7868 14.771 24.9462 17.0427C25.1057 19.3145 25.1157 19.5847 25.1379 20.4849C25.1582 21.3176 25.0512 21.7777 24.9557 22.0856C24.8293 22.4937 24.6644 22.7895 24.3873 23.1082C24.1103 23.4271 23.8404 23.6314 23.4538 23.8135C23.1623 23.9516 22.7212 24.1216 21.8939 24.2178C20.9994 24.3216 20.7305 24.3494 18.4576 24.5089C16.1846 24.6685 15.9146 24.6785 15.0144 24.7007C14.1817 24.7206 13.7216 24.6136 13.4131 24.5181C13.0051 24.3917 12.7084 24.2272 12.3895 23.9502C12.0707 23.6732 11.8664 23.4031 11.6838 23.0165C11.5463 22.725 11.3758 22.2843 11.2798 21.4569C11.176 20.5625 11.1489 20.2935 10.9893 18.0203C10.8298 15.7471 10.8191 15.4784 10.7969 14.5782C10.7766 13.7455 10.8837 13.2853 10.9791 12.9771C11.1055 12.569 11.2704 12.2723 11.5474 11.9534C11.8245 11.6346 12.0953 11.4302 12.4816 11.2477C12.7735 11.1096 13.2144 10.9397 14.0417 10.8433C14.8245 10.7527 15.1281 10.7207 16.7145 10.6075L16.7146 10.6097ZM22.1214 11.6505C21.5574 11.6901 21.1319 12.1793 21.1715 12.7434C21.2111 13.3073 21.7008 13.7328 22.2647 13.6932C22.8287 13.6536 23.2541 13.1639 23.2145 12.6C23.1749 12.036 22.6853 11.611 22.1214 11.6505ZM17.6613 13.163C15.2471 13.3325 13.4272 15.4272 13.5966 17.8414C13.7661 20.2555 15.8607 22.0746 18.2749 21.9051C20.6891 21.7357 22.5084 19.6419 22.3389 17.2277C22.1695 14.8135 20.0755 12.9936 17.6613 13.163ZM17.7689 14.697C19.3359 14.587 20.6956 15.7682 20.8056 17.3354C20.9156 18.9024 19.7343 20.262 18.1673 20.372C16.6001 20.482 15.2406 19.3007 15.1306 17.7337C15.0206 16.1665 16.2017 14.807 17.7689 14.697Z" fill="white"/>
</svg>
