<svg width="72" height="72" viewBox="0 0 72 72" fill="none" xmlns="http://www.w3.org/2000/svg">
<g filter="url(#filter0_d_134_3)">
<circle cx="36" cy="32" r="32" fill="#FFEFF3"/>
<g clip-path="url(#clip0_134_3)">
<path d="M40.0776 40.1614C41.2119 40.1614 42.1314 39.2419 42.1314 38.1076V29.7386C42.1314 28.6043 41.2119 27.6848 40.0776 27.6848H25.6288C24.4945 27.6848 23.575 28.6043 23.575 29.7386V38.1076C23.575 39.2419 24.4945 40.1614 25.6288 40.1614H25.8231C26.0008 40.1614 26.1351 40.3221 26.1037 40.497L25.5977 43.3066C25.5596 43.5179 25.8136 43.655 25.9693 43.5071L29.3013 40.3442C29.425 40.2268 29.5891 40.1613 29.7596 40.1613H42.8197H42.8199H40.0776V40.1614Z" fill="#FFA1BC"/>
<path d="M40.0776 27.6848H25.6288C24.4945 27.6848 23.575 28.6043 23.575 29.7386V38.1076C23.575 39.2419 24.4945 40.1614 25.6288 40.1614H25.8611C25.9572 40.1614 26.0494 40.1997 26.1172 40.2679L26.3146 40.4666H28.9698L29.1006 40.3546C29.2463 40.2299 29.4317 40.1614 29.6235 40.1614H40.0776C41.2119 40.1614 42.1314 39.2419 42.1314 38.1076V29.7386C42.1314 28.6043 41.2119 27.6848 40.0776 27.6848Z" fill="#F9CDD9"/>
<path d="M25.823 40.1612C26.0007 40.1612 26.1351 40.3219 26.1036 40.4968L25.5976 43.3064C25.5596 43.5177 25.8136 43.6548 25.9693 43.5069L29.3013 40.344C29.425 40.2266 29.589 40.1612 29.7595 40.1611H29.7596H25.823V40.1612Z" fill="#F9CDD9"/>
<path d="M42.8195 27.6848H39.6397C40.774 27.6848 41.6935 28.6043 41.6935 29.7386V38.1076C41.6935 39.2419 40.774 40.1614 39.6397 40.1614H42.8195C43.9538 40.1614 44.8733 39.2419 44.8733 38.1076V29.7386C44.8733 28.6043 43.9538 27.6848 42.8195 27.6848Z" fill="#F9CDD9"/>
<path d="M43.6002 32.9079C44.7345 32.9079 45.654 31.9884 45.654 30.8542V22.4851C45.654 21.3509 44.7345 20.4314 43.6002 20.4314H29.1805C28.0462 20.4314 27.1267 21.3509 27.1267 22.4851V30.8542C27.1267 31.9884 28.0462 32.9079 29.1805 32.9079H29.3748C29.5525 32.9079 29.6868 33.0687 29.6554 33.2435L29.1494 36.0532C29.1113 36.2645 29.3653 36.4015 29.521 36.2537L32.853 33.0907C32.9767 32.9733 33.1408 32.9078 33.3113 32.9078H43.6002V32.9079Z" fill="#F65D88"/>
<path d="M46.3713 20.4314H43.2056C44.3398 20.4314 45.2593 21.3509 45.2593 22.4851V30.8542C45.2593 31.9884 44.3398 32.9079 43.2056 32.9079H46.3713C47.5055 32.9079 48.425 31.9884 48.425 30.8542V22.4852C48.425 21.3509 47.5055 20.4314 46.3713 20.4314Z" fill="#F65D88"/>
<path d="M29.6553 33.2437L29.1493 36.0533C29.1113 36.2646 29.3653 36.4017 29.521 36.2538L32.853 33.0909C32.9767 32.9735 33.1407 32.908 33.3113 32.908H29.3748C29.5524 32.9081 29.6868 33.0688 29.6553 33.2437Z" fill="#F65D88"/>
<path d="M45.1316 23.3757H30.6203C30.4131 23.3757 30.2453 23.5436 30.2453 23.7507C30.2453 23.9579 30.4131 24.1257 30.6203 24.1257H45.1316C45.3387 24.1257 45.5066 23.9579 45.5066 23.7507C45.5066 23.5436 45.3387 23.3757 45.1316 23.3757Z" fill="#FFEFF3"/>
<path d="M45.1316 26.2947H30.6203C30.4131 26.2947 30.2453 26.4625 30.2453 26.6697C30.2453 26.8768 30.4131 27.0447 30.6203 27.0447H45.1316C45.3387 27.0447 45.5066 26.8768 45.5066 26.6697C45.5066 26.4625 45.3387 26.2947 45.1316 26.2947Z" fill="#FFEFF3"/>
<path d="M37.876 29.2136H30.6203C30.4131 29.2136 30.2453 29.3815 30.2453 29.5886C30.2453 29.7958 30.4131 29.9636 30.6203 29.9636H37.8759C38.0831 29.9636 38.2509 29.7958 38.2509 29.5886C38.2509 29.3815 38.0831 29.2136 37.876 29.2136Z" fill="#FFEFF3"/>
<path d="M46.3713 20.0564H29.1804C27.8412 20.0564 26.7517 21.1459 26.7517 22.4851V30.8542C26.7517 32.1934 27.8412 33.2829 29.1804 33.2829H29.2672L28.7803 35.9867C28.7343 36.2414 28.8565 36.4952 29.0843 36.6181C29.3111 36.7405 29.5905 36.7048 29.7791 36.5257L33.1111 33.3628C33.1654 33.3113 33.2365 33.2829 33.3113 33.2829H46.3713C47.7105 33.2829 48.8 32.1933 48.8 30.8541V22.4851C48.8 21.1459 47.7105 20.0564 46.3713 20.0564ZM48.05 30.8542C48.05 31.7799 47.2969 32.5329 46.3713 32.5329H33.3113C33.0435 32.5329 32.7891 32.6344 32.5948 32.8188L29.6011 35.6607L30.0244 33.31C30.0974 32.9048 29.7858 32.5329 29.3748 32.5329H29.1805C28.2548 32.5329 27.5017 31.7798 27.5017 30.8542V22.4851C27.5017 21.5594 28.2548 20.8064 29.1805 20.8064H46.3713C47.2969 20.8064 48.05 21.5594 48.05 22.4851V30.8542Z" fill="#F65D88"/>
<path d="M44.8734 34.286C44.6662 34.286 44.4984 34.4539 44.4984 34.661V38.1075C44.4984 39.0332 43.7453 39.7863 42.8196 39.7863H29.7595C29.4917 39.7863 29.2373 39.8878 29.0431 40.0722L26.0494 42.914L26.4727 40.5635C26.5456 40.1591 26.235 39.7863 25.8231 39.7863H25.6288C24.7031 39.7863 23.95 39.0332 23.95 38.1075V29.7385C23.95 28.8797 24.5926 28.1623 25.4448 28.0697C25.6507 28.0473 25.7994 27.8623 25.7771 27.6563C25.7547 27.4505 25.5701 27.3014 25.3637 27.324C24.1302 27.4582 23.2 28.4961 23.2 29.7385V38.1075C23.2 39.4467 24.2896 40.5363 25.6288 40.5363H25.7155L25.2286 43.2401C25.1827 43.4949 25.3049 43.7486 25.5328 43.8715C25.7595 43.9938 26.0389 43.9581 26.2274 43.779L29.5595 40.6161C29.6137 40.5646 29.6848 40.5362 29.7596 40.5362H42.8196C44.1588 40.5362 45.2484 39.4467 45.2484 38.1075V34.661C45.2484 34.4539 45.0805 34.286 44.8734 34.286Z" fill="#F65D88"/>
</g>
</g>
<defs>
<filter id="filter0_d_134_3" x="0" y="0" width="72" height="72" filterUnits="userSpaceOnUse" color-interpolation-filters="sRGB">
<feFlood flood-opacity="0" result="BackgroundImageFix"/>
<feColorMatrix in="SourceAlpha" type="matrix" values="0 0 0 0 0 0 0 0 0 0 0 0 0 0 0 0 0 0 127 0" result="hardAlpha"/>
<feOffset dy="4"/>
<feGaussianBlur stdDeviation="2"/>
<feComposite in2="hardAlpha" operator="out"/>
<feColorMatrix type="matrix" values="0 0 0 0 0 0 0 0 0 0 0 0 0 0 0 0 0 0 0.25 0"/>
<feBlend mode="normal" in2="BackgroundImageFix" result="effect1_dropShadow_134_3"/>
<feBlend mode="normal" in="SourceGraphic" in2="effect1_dropShadow_134_3" result="shape"/>
</filter>
<clipPath id="clip0_134_3">
<rect width="25.6" height="25.6" fill="white" transform="translate(23.2 19.2)"/>
</clipPath>
</defs>
</svg>
